<svg xmlns="http://www.w3.org/2000/svg" width="104" height="88" viewBox="0 0 104 88" shape-rendering="crispEdges">
  <rect x="8.00" y="0.00" width="8.50" height="8.50" fill="#000000"/>
  <rect x="16.00" y="0.00" width="8.50" height="8.50" fill="#000000"/>
  <rect x="24.00" y="0.00" width="8.50" height="8.50" fill="#000000"/>
  <rect x="32.00" y="0.00" width="8.50" height="8.50" fill="#000000"/>
  <rect x="40.00" y="0.00" width="8.50" height="8.50" fill="#000000"/>
  <rect x="48.00" y="0.00" width="8.50" height="8.50" fill="#000000"/>
  <rect x="56.00" y="0.00" width="8.50" height="8.50" fill="#000000"/>
  <rect x="64.00" y="0.00" width="8.50" height="8.50" fill="#000000"/>
  <rect x="72.00" y="0.00" width="8.50" height="8.50" fill="#000000"/>
  <rect x="80.00" y="0.00" width="8.50" height="8.50" fill="#000000"/>
  <rect x="88.00" y="0.00" width="8.50" height="8.50" fill="#000000"/>
  <rect x="0.00" y="8.00" width="8.50" height="8.50" fill="#000000"/>
  <rect x="8.00" y="8.00" width="8.50" height="8.50" fill="#000000"/>
  <rect x="16.00" y="8.00" width="8.50" height="8.50" fill="#000000"/>
  <rect x="24.00" y="8.00" width="8.50" height="8.50" fill="#000000"/>
  <rect x="32.00" y="8.00" width="8.50" height="8.50" fill="#000000"/>
  <rect x="40.00" y="8.00" width="8.50" height="8.50" fill="#000000"/>
  <rect x="48.00" y="8.00" width="8.50" height="8.50" fill="#000000"/>
  <rect x="56.00" y="8.00" width="8.50" height="8.50" fill="#000000"/>
  <rect x="64.00" y="8.00" width="8.50" height="8.50" fill="#000000"/>
  <rect x="72.00" y="8.00" width="8.50" height="8.50" fill="#000000"/>
  <rect x="80.00" y="8.00" width="8.50" height="8.50" fill="#000000"/>
  <rect x="88.00" y="8.00" width="8.50" height="8.50" fill="#000000"/>
  <rect x="96.00" y="8.00" width="8.50" height="8.50" fill="#000000"/>
  <rect x="0.00" y="16.00" width="8.50" height="8.50" fill="#000000"/>
  <rect x="8.00" y="16.00" width="8.50" height="8.50" fill="#000000"/>
  <rect x="16.00" y="16.00" width="8.50" height="8.50" fill="#000000"/>
  <rect x="40.00" y="16.00" width="8.50" height="8.50" fill="#000000"/>
  <rect x="48.00" y="16.00" width="8.50" height="8.50" fill="#000000"/>
  <rect x="56.00" y="16.00" width="8.50" height="8.50" fill="#000000"/>
  <rect x="80.00" y="16.00" width="8.50" height="8.50" fill="#000000"/>
  <rect x="88.00" y="16.00" width="8.50" height="8.50" fill="#000000"/>
  <rect x="96.00" y="16.00" width="8.50" height="8.50" fill="#000000"/>
  <rect x="0.00" y="24.00" width="8.50" height="8.50" fill="#000000"/>
  <rect x="8.00" y="24.00" width="8.50" height="8.50" fill="#000000"/>
  <rect x="16.00" y="24.00" width="8.50" height="8.50" fill="#000000"/>
  <rect x="40.00" y="24.00" width="8.50" height="8.50" fill="#000000"/>
  <rect x="48.00" y="24.00" width="8.50" height="8.50" fill="#000000"/>
  <rect x="56.00" y="24.00" width="8.50" height="8.50" fill="#000000"/>
  <rect x="80.00" y="24.00" width="8.50" height="8.50" fill="#000000"/>
  <rect x="88.00" y="24.00" width="8.50" height="8.50" fill="#000000"/>
  <rect x="96.00" y="24.00" width="8.50" height="8.50" fill="#000000"/>
  <rect x="0.00" y="32.00" width="8.50" height="8.50" fill="#000000"/>
  <rect x="8.00" y="32.00" width="8.50" height="8.50" fill="#000000"/>
  <rect x="16.00" y="32.00" width="8.50" height="8.50" fill="#000000"/>
  <rect x="40.00" y="32.00" width="8.50" height="8.50" fill="#000000"/>
  <rect x="48.00" y="32.00" width="8.50" height="8.50" fill="#000000"/>
  <rect x="56.00" y="32.00" width="8.50" height="8.50" fill="#000000"/>
  <rect x="80.00" y="32.00" width="8.50" height="8.50" fill="#000000"/>
  <rect x="88.00" y="32.00" width="8.50" height="8.50" fill="#000000"/>
  <rect x="96.00" y="32.00" width="8.50" height="8.50" fill="#000000"/>
  <rect x="0.00" y="40.00" width="8.50" height="8.50" fill="#000000"/>
  <rect x="8.00" y="40.00" width="8.50" height="8.50" fill="#000000"/>
  <rect x="16.00" y="40.00" width="8.50" height="8.50" fill="#000000"/>
  <rect x="24.00" y="40.00" width="8.50" height="8.50" fill="#000000"/>
  <rect x="32.00" y="40.00" width="8.50" height="8.50" fill="#000000"/>
  <rect x="40.00" y="40.00" width="8.50" height="8.50" fill="#000000"/>
  <rect x="48.00" y="40.00" width="8.50" height="8.50" fill="#000000"/>
  <rect x="56.00" y="40.00" width="8.50" height="8.50" fill="#000000"/>
  <rect x="64.00" y="40.00" width="8.50" height="8.50" fill="#000000"/>
  <rect x="72.00" y="40.00" width="8.50" height="8.50" fill="#000000"/>
  <rect x="80.00" y="40.00" width="8.50" height="8.50" fill="#000000"/>
  <rect x="88.00" y="40.00" width="8.50" height="8.50" fill="#000000"/>
  <rect x="96.00" y="40.00" width="8.50" height="8.50" fill="#000000"/>
  <rect x="0.00" y="48.00" width="8.50" height="8.50" fill="#000000"/>
  <rect x="8.00" y="48.00" width="8.50" height="8.50" fill="#000000"/>
  <rect x="16.00" y="48.00" width="8.50" height="8.50" fill="#000000"/>
  <rect x="24.00" y="48.00" width="8.50" height="8.50" fill="#000000"/>
  <rect x="32.00" y="48.00" width="8.50" height="8.50" fill="#000000"/>
  <rect x="40.00" y="48.00" width="8.50" height="8.50" fill="#000000"/>
  <rect x="48.00" y="48.00" width="8.50" height="8.50" fill="#000000"/>
  <rect x="56.00" y="48.00" width="8.50" height="8.50" fill="#000000"/>
  <rect x="64.00" y="48.00" width="8.50" height="8.50" fill="#000000"/>
  <rect x="72.00" y="48.00" width="8.50" height="8.50" fill="#000000"/>
  <rect x="80.00" y="48.00" width="8.50" height="8.50" fill="#000000"/>
  <rect x="88.00" y="48.00" width="8.50" height="8.50" fill="#000000"/>
  <rect x="96.00" y="48.00" width="8.50" height="8.50" fill="#000000"/>
  <rect x="0.00" y="56.00" width="8.50" height="8.50" fill="#000000"/>
  <rect x="8.00" y="56.00" width="8.50" height="8.50" fill="#000000"/>
  <rect x="16.00" y="56.00" width="8.50" height="8.50" fill="#000000"/>
  <rect x="24.00" y="56.00" width="8.50" height="8.50" fill="#000000"/>
  <rect x="32.00" y="56.00" width="8.50" height="8.50" fill="#000000"/>
  <rect x="40.00" y="56.00" width="8.50" height="8.50" fill="#000000"/>
  <rect x="48.00" y="56.00" width="8.50" height="8.50" fill="#000000"/>
  <rect x="56.00" y="56.00" width="8.50" height="8.50" fill="#000000"/>
  <rect x="64.00" y="56.00" width="8.50" height="8.50" fill="#000000"/>
  <rect x="72.00" y="56.00" width="8.50" height="8.50" fill="#000000"/>
  <rect x="80.00" y="56.00" width="8.50" height="8.50" fill="#000000"/>
  <rect x="88.00" y="56.00" width="8.50" height="8.50" fill="#000000"/>
  <rect x="96.00" y="56.00" width="8.50" height="8.50" fill="#000000"/>
  <rect x="0.00" y="64.00" width="8.50" height="8.50" fill="#000000"/>
  <rect x="8.00" y="64.00" width="8.50" height="8.50" fill="#000000"/>
  <rect x="16.00" y="64.00" width="8.50" height="8.50" fill="#000000"/>
  <rect x="24.00" y="64.00" width="8.50" height="8.50" fill="#000000"/>
  <rect x="32.00" y="64.00" width="8.50" height="8.50" fill="#000000"/>
  <rect x="40.00" y="64.00" width="8.50" height="8.50" fill="#000000"/>
  <rect x="48.00" y="64.00" width="8.50" height="8.50" fill="#000000"/>
  <rect x="56.00" y="64.00" width="8.50" height="8.50" fill="#000000"/>
  <rect x="64.00" y="64.00" width="8.50" height="8.50" fill="#000000"/>
  <rect x="72.00" y="64.00" width="8.50" height="8.50" fill="#000000"/>
  <rect x="80.00" y="64.00" width="8.50" height="8.50" fill="#000000"/>
  <rect x="88.00" y="64.00" width="8.50" height="8.50" fill="#000000"/>
  <rect x="96.00" y="64.00" width="8.50" height="8.50" fill="#000000"/>
  <rect x="16.00" y="72.00" width="8.50" height="8.50" fill="#000000"/>
  <rect x="24.00" y="72.00" width="8.50" height="8.50" fill="#000000"/>
  <rect x="72.00" y="72.00" width="8.50" height="8.50" fill="#000000"/>
  <rect x="80.00" y="72.00" width="8.50" height="8.50" fill="#000000"/>
  <rect x="16.00" y="80.00" width="8.50" height="8.50" fill="#000000"/>
  <rect x="24.00" y="80.00" width="8.50" height="8.50" fill="#000000"/>
  <rect x="72.00" y="80.00" width="8.50" height="8.50" fill="#000000"/>
  <rect x="80.00" y="80.00" width="8.50" height="8.50" fill="#000000"/>
</svg>
